<svg width="528" height="69" viewBox="0 0 528 69" fill="none" xmlns="http://www.w3.org/2000/svg">
<path d="M0.0336914 34.313C0.0336914 13.4609 13.6054 0.819458 34.4387 0.819458C46.7334 0.819458 56.7494 5.65074 63.0345 13.2857L50.5645 23.6491C47.4596 19.0932 41.9257 15.8139 34.9896 15.8139C23.8718 15.8139 16.7855 22.7229 16.7855 34.288C16.7855 45.9281 23.8969 53.1374 34.9896 53.1374C42.0008 53.1374 47.4596 49.9583 50.5645 45.4024L63.0345 55.866C56.7494 63.4258 47.5597 68.157 34.4387 68.157C13.6054 68.157 0.0336914 55.2402 0.0336914 34.313Z" fill="white"/>
<path d="M70.5717 2.07019H86.8727V66.7793H70.5717V2.07019Z" fill="white"/>
<path d="M158.337 2.07028V66.9546H150.149L114.467 31.108V66.7794H98.6163V1.99518H106.729L142.512 37.7667V2.07028H158.337Z" fill="white"/>
<path d="M228.9 2.07028V66.9546H220.712L185.03 31.083V66.7544H169.179V1.99518H177.292L213.074 37.7667V2.07028H228.9Z" fill="white"/>
<path d="M282.51 56.2407H256.644L251.911 66.8044H234.433L264.206 1.99518H274.948L304.721 66.8044H287.243L282.51 56.2407ZM261.477 43.399H277.778L274.047 34.6626L269.69 22.0212L265.233 34.6626L261.477 43.399Z" fill="white"/>
<path d="M379.19 1.99518V66.8044H363.615V35.7641L347.59 56.0655H342.031L326.005 35.9393V66.8044H310.43V1.99518H318.719L344.835 35.3135L370.877 1.99518H379.19Z" fill="white"/>
<path d="M388.179 34.4872C388.179 14.6364 402.302 0.718262 423.236 0.718262C443.994 0.718262 458.392 14.361 458.392 34.4872C458.392 54.2378 444.369 68.1559 423.236 68.1559C402.653 68.1559 388.179 54.5132 388.179 34.4872ZM441.615 34.4872C441.615 23.2976 434.428 15.6377 423.236 15.6377C412.393 15.6377 404.931 23.0974 404.931 34.4872C404.931 45.6016 412.118 53.2365 423.236 53.2365C434.253 53.2365 441.615 45.7768 441.615 34.4872Z" fill="white"/>
<path d="M527.102 2.07028V66.9546H518.914L483.232 31.083V66.7544H467.382V1.99518H475.495L511.277 37.7667V2.07028H527.102Z" fill="white"/>
</svg>
