<?xml version="1.0" encoding="utf-8"?><!-- Uploaded to: SVG Repo, www.svgrepo.com, Generator: SVG Repo Mixer Tools -->
<svg fill="#000000" width="800px" height="800px" viewBox="0 0 1024 1024" xmlns="http://www.w3.org/2000/svg"><path d="M426.667 460.8c-4.267-4.267-12.8-8.533-17.067-12.8l-55.467-59.733c-17.067-17.067-38.4-21.333-55.467-17.067l-17.067 4.267c-12.8 4.267-25.6 12.8-29.867 25.6s0 25.6 4.267 38.4L354.132 588.8c17.067 21.333 42.667 38.4 72.533 38.4h12.8l21.333-4.267 93.867-25.6L511.998 704c-4.267 17.067-4.267 29.867 4.267 42.667 8.533 8.533 17.067 12.8 25.6 12.8h12.8l38.4-12.8c21.333-4.267 46.933-25.6 59.733-46.933l85.333-149.333 153.6-42.667c25.6-8.533 42.667-34.133 34.133-59.733-17.067-59.733-76.8-93.867-136.533-81.067l-81.067 17.067-98.133-64c-17.067-12.8-42.667-17.067-64-17.067-8.533 0-17.067 4.267-25.6 4.267h-8.533c-17.067 4.267-25.6 12.8-29.867 25.6s0 29.867 12.8 38.4l46.933 51.2-98.133 25.6c-8.533 12.8-12.8 12.8-17.067 12.8zm192 209.067c-4.267 8.533-21.333 21.333-29.867 25.6L563.2 704l46.933-123.733 72.533-21.333-64 110.933zm-89.6-315.734c8.533-4.267 12.8-4.267 21.333-4.267 12.8 0 25.6 0 34.133 8.533l64 42.667-59.733 17.067-59.733-64zm277.333 51.2c34.133-8.533 72.533 12.8 81.067 46.933 0 0 0 4.267-4.267 4.267L430.933 576c-17.067 0-29.867-4.267-38.4-17.067l-98.133-140.8 12.8-4.267c4.267 0 8.533 0 12.8 4.267l59.733 64c8.533 8.533 17.067 12.8 25.6 21.333 0 0 4.267 4.267 12.8 4.267h8.533c12.8 0 21.333-4.267 29.867-4.267L806.4 405.333z"/><path d="M554.667 42.667c-226.133 0-418.133 162.133-460.8 379.733C25.6 465.067-12.8 524.8 0 567.467c8.533 38.4 46.933 64 102.4 72.533 17.067 4.267 38.4 4.267 55.467 4.267 38.4 0 81.067-4.267 123.733-17.067 12.8-4.267 17.067-17.067 17.067-25.6-4.267-12.8-17.067-17.067-25.6-17.067-59.733 17.067-115.2 21.333-157.867 12.8-38.4-8.533-64-21.333-68.267-42.667-4.267-17.067 8.533-46.933 42.667-72.533V512c0 17.067 0 38.4 4.267 55.467 0 12.8 12.8 21.333 25.6 21.333S140.8 576 140.8 563.2c0-17.067-4.267-34.133-4.267-51.2C132.266 277.333 320 85.333 554.666 85.333s422.4 192 422.4 422.4c0 234.667-192 422.4-422.4 422.4-170.667 0-324.267-102.4-388.267-256-4.267-12.8-17.067-17.067-29.867-12.8s-17.067 17.067-12.8 29.867c72.533 170.667 243.2 285.867 430.933 285.867 256 0 469.333-209.067 469.333-469.333S810.665 42.667 554.665 42.667z"/></svg>