<svg width="25" height="24" viewBox="0 0 25 24" fill="none" xmlns="http://www.w3.org/2000/svg">
<path d="M2.56552 8.21149C2.32337 8.04056 2.20229 7.95509 2.09906 7.93423C1.87159 7.88825 1.63609 8.01028 1.54248 8.22263C1.49999 8.319 1.5 8.46556 1.5 8.75869V15.2413C1.49999 16.0463 1.49998 16.7106 1.54419 17.2518C1.56792 17.5422 1.90639 17.659 2.12227 17.4634L7.31647 12.7581C7.56952 12.5289 7.69605 12.4142 7.73639 12.2826C7.77177 12.1673 7.76421 12.043 7.71513 11.9327C7.65914 11.807 7.51967 11.7085 7.24072 11.5116L2.56552 8.21149Z" fill="white"/>
<path d="M3.19115 19.1938C2.98752 19.3782 2.88571 19.4705 2.8454 19.6023C2.81416 19.7045 2.82351 19.8551 2.86717 19.9527C2.92348 20.0785 3.01634 20.1437 3.20207 20.2741C3.35507 20.3815 3.51605 20.4784 3.68404 20.564C4.16937 20.8113 4.68608 20.9099 5.24818 20.9558C5.78937 21 6.45372 21 7.25868 21H17.7413C18.5463 21 19.2106 21 19.7518 20.9558C20.3139 20.9099 20.8306 20.8113 21.316 20.564C21.484 20.4784 21.6449 20.3814 21.7979 20.2741C21.9837 20.1437 22.0765 20.0785 22.1328 19.9527C22.1765 19.8551 22.1859 19.7045 22.1546 19.6023C22.1143 19.4705 22.0125 19.3782 21.8089 19.1938L15.6892 13.65C15.5722 13.5441 15.5138 13.4911 15.4505 13.4601C15.3306 13.4013 15.1922 13.3929 15.0661 13.4368C14.9995 13.4599 14.935 13.5055 14.8062 13.5965C14.2589 13.984 13.7783 14.3243 13.2303 14.4618C12.7509 14.5821 12.2493 14.5821 11.7699 14.4618C11.2218 14.3243 10.7413 13.984 10.194 13.5965C10.0651 13.5054 10.0006 13.4599 9.93394 13.4367C9.80788 13.3929 9.66954 13.4013 9.5497 13.46C9.48636 13.491 9.42785 13.544 9.31085 13.65L3.19115 19.1938Z" fill="white"/>
<path d="M22.8777 17.4634C23.0936 17.659 23.4321 17.5421 23.4558 17.2518C23.5 16.7106 23.5 16.0463 23.5 15.2413V8.75868C23.5 8.46566 23.5 8.31916 23.4576 8.22282C23.364 8.0104 23.1284 7.88833 22.9009 7.93436C22.7977 7.95523 22.6766 8.04066 22.4346 8.21153L17.7594 11.5117C17.4804 11.7086 17.3409 11.807 17.285 11.9328C17.2359 12.043 17.2283 12.1673 17.2637 12.2827C17.304 12.4143 17.4306 12.5289 17.6836 12.7582L22.8777 17.4634Z" fill="white"/>
<path d="M22.7796 4.70729C22.8888 4.86318 22.9434 4.94112 22.9602 5.05968C22.9733 5.15207 22.9508 5.2809 22.9072 5.36341C22.8513 5.46929 22.7568 5.53604 22.5676 5.66953L13.7688 11.8805C13.0361 12.3977 12.8807 12.4875 12.7435 12.5219C12.5837 12.562 12.4165 12.562 12.2567 12.5219C12.1195 12.4875 11.9641 12.3977 11.2314 11.8805L2.43241 5.66945C2.24329 5.53596 2.14873 5.46921 2.0928 5.36333C2.04921 5.28082 2.02676 5.15199 2.03986 5.05959C2.05667 4.94103 2.11126 4.86309 2.22044 4.7072C2.59472 4.17279 3.104 3.73152 3.68404 3.43598C4.16937 3.18868 4.68608 3.09012 5.24818 3.04419C5.78937 2.99998 6.45372 2.99999 7.25869 3H17.7413C18.5463 2.99999 19.2106 2.99998 19.7518 3.04419C20.3139 3.09012 20.8306 3.18868 21.316 3.43598C21.896 3.73154 22.4053 4.17284 22.7796 4.70729Z" fill="white"/>
</svg>
